<svg id="visual" viewBox="0 0 960 540" width="960" height="540" xmlns="http://www.w3.org/2000/svg"
    xmlns:xlink="http://www.w3.org/1999/xlink" version="1.1">
    <path
        d="M0 426L22.8 412.2C45.7 398.3 91.3 370.7 137 367.7C182.7 364.7 228.3 386.3 274 399.8C319.7 413.3 365.3 418.7 411.2 410.3C457 402 503 380 548.8 366.8C594.7 353.7 640.3 349.3 686 353C731.7 356.7 777.3 368.3 823 379.5C868.7 390.7 914.3 401.3 937.2 406.7L960 412L960 541L937.2 541C914.3 541 868.7 541 823 541C777.3 541 731.7 541 686 541C640.3 541 594.7 541 548.8 541C503 541 457 541 411.2 541C365.3 541 319.7 541 274 541C228.3 541 182.7 541 137 541C91.3 541 45.7 541 22.8 541L0 541Z"
        fill="#6600ff"></path>
    <path
        d="M0 462L22.8 462.2C45.7 462.3 91.3 462.7 137 460.3C182.7 458 228.3 453 274 444.7C319.7 436.3 365.3 424.7 411.2 421.7C457 418.7 503 424.3 548.8 429C594.7 433.7 640.3 437.3 686 445.3C731.7 453.3 777.3 465.7 823 463.2C868.7 460.7 914.3 443.3 937.2 434.7L960 426L960 541L937.2 541C914.3 541 868.7 541 823 541C777.3 541 731.7 541 686 541C640.3 541 594.7 541 548.8 541C503 541 457 541 411.2 541C365.3 541 319.7 541 274 541C228.3 541 182.7 541 137 541C91.3 541 45.7 541 22.8 541L0 541Z"
        fill="#17003a"></path>
</svg>